<?xml version="1.0" encoding="UTF-8"?>
<svg id="Layer_1" xmlns="http://www.w3.org/2000/svg" xmlns:xlink="http://www.w3.org/1999/xlink" version="1.1" viewBox="0 0 347.9 100">
  <!-- Generator: Adobe Illustrator 29.3.1, SVG Export Plug-In . SVG Version: 2.1.0 Build 151)  -->
  <defs>
    <style>
      .st0 {
        fill: url(#radial-gradient);
      }

      .st1, .st2, .st3, .st4 {
        fill: #fff;
      }

      .st2 {
        opacity: .7;
      }

      .st2, .st3, .st4 {
        isolation: isolate;
      }

      .st3 {
        opacity: .3;
      }

      .st4 {
        opacity: .5;
      }
    </style>
    <radialGradient id="radial-gradient" cx="-243.6" cy="466.3" fx="-243.6" fy="466.3" r=".9" gradientTransform="translate(24453 46718) scale(100 -100)" gradientUnits="userSpaceOnUse">
      <stop offset="0" stop-color="#afeeee"/>
      <stop offset="1" stop-color="#eee8aa"/>
    </radialGradient>
  </defs>
  <circle class="st0" cx="53.8" cy="50" r="50"/>
  <circle class="st3" cx="53.8" cy="50" r="24"/>
  <circle class="st2" cx="43.8" cy="50" r="8"/>
  <circle class="st4" cx="63.8" cy="50" r="6"/>
  <g>
    <path class="st1" d="M117.7,36v-1.7h10.5c1.9,0,3.7.3,5.3.9,1.6.6,2.9,1.4,4.1,2.5,1.1,1.1,2,2.4,2.7,4,.6,1.6.9,3.3.9,5.3s-.3,3.7-.9,5.3c-.6,1.6-1.5,2.9-2.7,4.1-1.1,1.1-2.5,2-4.1,2.6s-3.3.9-5.3.9h-10.5v-1.7h.4c.8,0,1.6,0,2.1-.3s.8-.5.8-1v-19.6c0-.5-.3-.8-.8-1-.6-.2-1.3-.3-2.1-.3h-.4ZM128.3,36.5h-4v21.3h4c1.5,0,2.8-.2,3.9-.7,1.2-.5,2.2-1.2,3-2.1.8-.9,1.5-2.1,1.9-3.4.4-1.3.7-2.8.7-4.5s-.2-3.2-.7-4.5c-.4-1.3-1.1-2.4-1.9-3.3s-1.8-1.6-3-2.1c-1.2-.5-2.5-.7-3.9-.7Z"/>
    <path class="st1" d="M153.2,35.7l.6,1.1-6.8,20.8c0,.1.1.2.4.3.3.1.7.2,1.1.2s.9,0,1.3,0h.5v1.7h-8v-1.7h.2c.6,0,1.1,0,1.5-.3.4-.2.7-.6.9-1.3l7.4-22.3h3.5l7.7,22.9c.2.5.4.7.8.8.4.1.9.2,1.4.2h.2v1.7h-9v-1.7h.6c.4,0,.9,0,1.3,0,.5,0,.8,0,1.2-.1.3,0,.5-.1.5-.2l-7.3-22.1ZM148.5,49.1h10.4v2s-10.6,0-10.6,0l.2-2Z"/>
    <path class="st1" d="M178.5,58.1c1,0,1.9-.2,2.7-.5s1.3-.8,1.7-1.5c.4-.7.6-1.5.6-2.5s-.2-1.7-.6-2.3-.9-1.1-1.5-1.5c-.6-.4-1.3-.7-2.1-1-.8-.3-1.6-.5-2.5-.8-.9-.3-1.8-.6-2.7-.9s-1.7-.8-2.5-1.3c-.7-.6-1.3-1.2-1.8-2.1-.4-.8-.7-1.9-.7-3.2s.3-2.5,1-3.5c.7-1,1.5-1.7,2.6-2.3s2.3-.8,3.6-.8,2,.1,2.9.4c.9.3,1.8.8,2.6,1.6.8.8,1.4,1.9,2,3.3l-1.2.2.5-5.2h2v6.7h-2.2c-.4-1-.9-1.9-1.5-2.6-.6-.7-1.3-1.3-2.1-1.7-.8-.4-1.7-.6-2.6-.6s-1.8.2-2.5.5c-.7.3-1.2.8-1.6,1.4-.4.6-.6,1.4-.6,2.2s.2,1.5.6,2c.4.5.9,1,1.5,1.4.6.4,1.3.7,2.1.9.8.3,1.6.5,2.5.7,1,.3,1.9.6,2.8.9.9.3,1.8.8,2.5,1.4.7.6,1.3,1.3,1.8,2.1.4.9.7,1.9.7,3.2s-.4,2.9-1.1,4c-.7,1.1-1.7,1.9-2.9,2.5-1.2.6-2.5.8-4,.8s-2.6-.2-3.8-.7c-1.2-.4-2.3-1.1-3.2-2.1-.9-1-1.7-2.2-2.2-3.9h1.6c0,.1-.5,6.3-.5,6.3h-2.1v-8h2.2c.4,1.2,1,2.3,1.7,3.2.8.9,1.7,1.7,2.7,2.2,1.1.5,2.2.8,3.4.8Z"/>
    <path class="st1" d="M189.9,59.9v-1.7h.4c.8,0,1.6,0,2.1-.3.6-.2.8-.5.8-1v-19.6c0-.5-.3-.9-.8-1-.6-.2-1.3-.3-2.1-.3h-.4v-1.7h9.8v1.7h-.3c-.3,0-.7,0-1,0-.4,0-.7,0-1,0-.3,0-.5,0-.7.1-.2,0-.3,0-.3.2v21.5c0,0,0,.1.3.2.2,0,.4,0,.7.1.3,0,.6,0,1,0,.4,0,.7,0,1,0h.3v1.7h-9.8ZM195.3,45.7h14.8v2.1h-14.8v-2.1ZM205.7,59.9v-1.7h.3c.3,0,.7,0,1,0,.4,0,.7,0,1,0,.3,0,.5,0,.7-.1.2,0,.3,0,.3-.2v-21.5c0,0,0-.1-.3-.2-.2,0-.4,0-.7-.1-.3,0-.6,0-1,0-.4,0-.7,0-1,0h-.3v-1.7h9.8v1.7h-.4c-.8,0-1.6,0-2.1.3-.6.2-.8.5-.8,1v19.6c0,.5.3.9.8,1,.6.2,1.3.3,2.1.3h.4v1.7h-9.8Z"/>
    <path class="st1" d="M229,34.3c1.3,0,2.5.2,3.5.5,1,.3,1.9.7,2.6,1.3.7.6,1.2,1.2,1.6,2.1.4.8.6,1.7.6,2.7s-.3,2.3-1,3.2c-.6.9-1.6,1.6-2.9,2.1s-2.8.8-4.7.8l2.8-1.4v1.7l-2.4-1.3c2,0,3.7.3,5.1.8,1.4.6,2.4,1.3,3.1,2.4.7,1,1.1,2.2,1.1,3.6s-.2,2.1-.6,3c-.4.9-1,1.6-1.8,2.3-.8.6-1.7,1.1-2.8,1.4-1.1.3-2.4.5-3.8.5h-10.7v-1.7h.4c.8,0,1.6,0,2.1-.3.6-.2.8-.5.8-1v-19.6c0-.5-.3-.9-.8-1-.6-.2-1.3-.3-2.1-.3h-.4v-1.7h10.4ZM224.5,45.5h4.5c1.2,0,2.2-.2,2.9-.6.7-.4,1.3-.9,1.6-1.6.3-.7.5-1.5.5-2.4s-.2-1.8-.5-2.4c-.4-.7-.9-1.2-1.6-1.5-.7-.3-1.7-.5-2.9-.5h-3.8v21.5h4.1c1.3,0,2.4-.2,3.2-.6.9-.4,1.5-1,1.9-1.7.4-.8.6-1.7.6-2.8s-.2-1.9-.6-2.7c-.4-.8-1-1.4-1.8-1.8-.8-.4-1.9-.7-3.3-.7h-4.8v-2Z"/>
    <path class="st1" d="M253.8,60.3c-1.7,0-3.3-.3-4.7-1s-2.7-1.5-3.8-2.7c-1.1-1.2-2-2.5-2.6-4.2-.6-1.6-.9-3.4-.9-5.3s.3-3.7.9-5.3c.6-1.6,1.5-3,2.6-4.2,1.1-1.2,2.4-2.1,3.8-2.7,1.5-.6,3-1,4.7-1s3.3.3,4.7,1c1.5.6,2.7,1.5,3.8,2.7,1.1,1.2,2,2.6,2.6,4.2s.9,3.4.9,5.3-.3,3.7-.9,5.3c-.6,1.6-1.5,3-2.6,4.2-1.1,1.2-2.4,2.1-3.8,2.7s-3,1-4.7,1ZM253.8,58.1c1.2,0,2.4-.3,3.4-.8,1.1-.5,2-1.2,2.7-2.2.8-1,1.4-2.1,1.8-3.5.4-1.4.6-2.9.6-4.6s-.2-3.2-.6-4.6c-.4-1.4-1-2.5-1.8-3.5-.8-1-1.7-1.7-2.7-2.2-1.1-.5-2.2-.8-3.4-.8s-2.4.3-3.4.8c-1.1.5-2,1.2-2.7,2.2-.8,1-1.4,2.1-1.8,3.5-.4,1.4-.6,2.9-.6,4.6s.2,3.2.6,4.6c.4,1.4,1,2.5,1.8,3.5.8,1,1.7,1.7,2.7,2.2,1.1.5,2.2.8,3.4.8Z"/>
    <path class="st1" d="M277.9,35.7l.6,1.1-6.8,20.8c0,.1.1.2.4.3.3.1.7.2,1.1.2s.9,0,1.3,0h.5v1.7h-8v-1.7h.2c.6,0,1.1,0,1.5-.3.4-.2.7-.6.9-1.3l7.4-22.3h3.5l7.7,22.9c.2.5.4.7.8.8.4.1.9.2,1.4.2h.2v1.7h-9v-1.7h.6c.4,0,.9,0,1.3,0,.5,0,.8,0,1.2-.1.3,0,.5-.1.5-.2l-7.3-22.1ZM273.2,49.1h10.4v2s-10.6,0-10.6,0l.2-2Z"/>
    <path class="st1" d="M299.2,58c.2,0,.4,0,.6.1.3,0,.6,0,.9,0,.3,0,.6,0,.9,0h.4v1.7h-9.6v-1.7h.4c.8,0,1.6,0,2.1-.3.6-.2.8-.5.8-1v-19.6c0-.5-.3-.9-.8-1-.6-.2-1.3-.3-2.1-.3h-.4v-1.7h9.9c1.9,0,3.5.3,4.8.9,1.3.6,2.3,1.5,3,2.6.7,1.1,1.1,2.4,1.1,3.9s-.2,2.2-.7,3.2c-.5.9-1.1,1.7-2,2.4s-1.9,1.1-3.2,1.5c-.3,0-.7.1-1,.2-.3,0-.7,0-1.1.1-.4,0-.7,0-1.1,0h-3.9v-2h3.9c1.3,0,2.4-.2,3.2-.6s1.4-1,1.8-1.9c.4-.8.6-1.8.6-2.9s-.2-2-.6-2.8c-.4-.8-1-1.4-1.8-1.8-.8-.4-1.8-.6-3-.6h-3.4v21.4c0,0,0,.1.2.2ZM306.3,47.8l5.1,9.4c.2.3.4.5.6.6.2.1.5.2.8.3.3,0,.6,0,1,0h.3v1.7h-5l-5.8-11.6,3.1-.5Z"/>
    <path class="st1" d="M316.4,36v-1.7h10.5c1.9,0,3.7.3,5.3.9,1.6.6,2.9,1.4,4.1,2.5,1.1,1.1,2,2.4,2.7,4,.6,1.6.9,3.3.9,5.3s-.3,3.7-.9,5.3c-.6,1.6-1.5,2.9-2.7,4.1-1.1,1.1-2.5,2-4.1,2.6s-3.3.9-5.3.9h-10.5v-1.7h.4c.8,0,1.6,0,2.1-.3s.8-.5.8-1v-19.6c0-.5-.3-.8-.8-1-.6-.2-1.3-.3-2.1-.3h-.4ZM327,36.5h-4v21.3h4c1.5,0,2.8-.2,3.9-.7,1.2-.5,2.2-1.2,3-2.1.8-.9,1.5-2.1,1.9-3.4.4-1.3.7-2.8.7-4.5s-.2-3.2-.7-4.5c-.4-1.3-1.1-2.4-1.9-3.3s-1.8-1.6-3-2.1c-1.2-.5-2.5-.7-3.9-.7Z"/>
  </g>
</svg>